<?xml version="1.0"?>
<?xml-stylesheet type="text/css" href="slides.css" ?>
<svg xmlns="http://www.w3.org/2000/svg" style="display:block; height: 100%; width: 100%; font-size: 50px; font-weight: bold; stroke-width: 5px;" preserveAspectRatio="xMidYMin meet"
     viewBox="0 -200 1650 500">
	<rect x="0" y="0" width="1500" height="1000" fill="white" />

	<rect x="25" y="100" width="250" height="100" fill="fuchsia" stroke="black" />
	<text x="150" y="150" text-anchor="middle" dominant-baseline="middle">Content</text>

	<rect x="350" y="75" width="300" height="150" fill="yellow" stroke="black" />
	<text x="500" y="120" text-anchor="middle" dominant-baseline="middle">Compute</text>
	<text x="500" y="180" text-anchor="middle" dominant-baseline="middle">style</text>

	<rect x="725" y="75" width="300" height="150" fill="yellow" stroke="black" />
	<text x="875" y="120" text-anchor="middle" dominant-baseline="middle">Construct</text>
	<text x="875" y="180" text-anchor="middle" dominant-baseline="middle">frames</text>

	<rect x="1100" y="100" width="250" height="100" fill="yellow" stroke="black" />
	<text x="1225" y="150" text-anchor="middle" dominant-baseline="middle">Layout</text>

	<rect x="1425" y="100" width="200" height="100" fill="yellow" stroke="black" />
	<text x="1525" y="150" text-anchor="middle" dominant-baseline="middle">Paint</text>

	<defs>
		<marker id="Arrowhead3" viewBox="0 0 10 10" refX="5" refY="5" markerUnits="strokeWidth" markerWidth="3" markerHeight="3" orient="auto">
			<polyline points="0,0 10,5 0,10 2,5" fill="#999" />
		</marker>
		<marker id="Arrowhead4" viewBox="0 0 10 10" refX="5" refY="5" markerUnits="strokeWidth" markerWidth="3" markerHeight="3" orient="auto">
			<polyline points="0,0 10,5 0,10 2,5" fill="purple" />
		</marker>
		<marker id="Arrowhead5" viewBox="0 0 10 10" refX="5" refY="5" markerUnits="strokeWidth" markerWidth="3" markerHeight="3" orient="auto">
			<polyline points="0,0 10,5 0,10 2,5" fill="red" />
		</marker>
		<marker id="Arrowhead6" viewBox="0 0 10 10" refX="5" refY="5" markerUnits="strokeWidth" markerWidth="3" markerHeight="3" orient="auto">
			<polyline points="0,0 10,5 0,10 2,5" fill="black" />
		</marker>
		<marker id="Arrowhead7" viewBox="0 0 10 10" refX="5" refY="5" markerUnits="strokeWidth" markerWidth="3" markerHeight="3" orient="auto">
			<polyline points="0,0 10,5 0,10 2,5" fill="#069" />
		</marker>
	</defs>

	<g marker-end="url(#Arrowhead3)" color="#999" stroke="currentColor" stroke-width="10" fill="none">
		<path d="M 280 150 l 55 0" />
		<path d="M 655 150 l 55 0" />
		<path d="M 1030 150 l 55 0" />
		<path d="M 1355 150 l 55 0" />
	</g>

	<g marker-end="url(#Arrowhead6)" color="black" stroke="currentColor" stroke-width="10" fill="none">
		<path d="M 25 -150 C 125 -150 125 0 125 80" />
		<path d="M 950 70 C 950 0 1150 -25 1150 80" />
		<path d="M 1300 90 C 1300 0 1475 0 1475 80" />
	</g>

	<g marker-end="url(#Arrowhead4)" color="purple" stroke="currentColor" stroke-width="10" fill="none">
		<path d="M 225 90 C 225 -50 400 -50 400 50" />
		<path d="M 195 90 C 195 -100 400 -140 450 -180" />
	</g>

	<g marker-end="url(#Arrowhead5)" color="red" stroke="currentColor" stroke-width="10" fill="none">
		<path d="M 600 70 C 600 0 800 -25 800 50" />
		<path d="M 570 70 C 570 -75 1200 -75 1200 80" />
		<path d="M 540 70 C 540 -150 1525 -150 1525 80" />
		<path d="M 510 70 C 510 -130 1100 -120 1200 -180" />
		<path d="M 420 70 C 420 -130 700 -120 800 -180" />
	</g>

	<g marker-end="url(#Arrowhead7)" color="#069" stroke="currentColor" stroke-width="10" fill="none">
		<path d="M 420 70 C 420 -130 700 -120 800 -180" />
	</g>

	<ellipse cx="120" cy="-50" rx="1.6em" ry="0.8em" fill="lime" stroke="black" />
	<text x="120" y="-50" text-anchor="middle" dominant-baseline="middle">DOM</text>


</svg>
