<?xml version="1.0"?>
<?xml-stylesheet type="text/css" href="pipeline.css" ?>
<svg xmlns="http://www.w3.org/2000/svg" style="display:block; height: 100%; width: 100%; font-size: 50px; font-weight: bold; stroke-width: 5px;" preserveAspectRatio="xMidYMin meet"
     viewBox="0 0 2050 410">
	<rect x="0" y="0" width="2050" height="410" fill="white" />

	<rect x="25" y="100" width="250" height="100" fill="fuchsia" stroke="black" />
	<text x="150" y="150" text-anchor="middle" dominant-baseline="middle">Content</text>

	<rect x="350" y="75" width="300" height="150" fill="yellow" stroke="black" />
	<text x="500" y="120" text-anchor="middle" dominant-baseline="middle">Match</text>
	<text x="500" y="180" text-anchor="middle" dominant-baseline="middle">selectors</text>

	<rect x="725" y="75" width="300" height="150" fill="yellow" stroke="black" />
	<text x="875" y="120" text-anchor="middle" dominant-baseline="middle">Compute</text>
	<text x="875" y="180" text-anchor="middle" dominant-baseline="middle">style</text>

	<rect x="1100" y="75" width="300" height="150" fill="yellow" stroke="black" />
	<text x="1250" y="120" text-anchor="middle" dominant-baseline="middle">Construct</text>
	<text x="1250" y="180" text-anchor="middle" dominant-baseline="middle">frames</text>

	<rect x="1475" y="100" width="250" height="100" fill="yellow" stroke="black" />
	<text x="1600" y="150" text-anchor="middle" dominant-baseline="middle">Layout</text>

	<rect x="1800" y="100" width="200" height="100" fill="yellow" stroke="black" />
	<text x="1900" y="150" text-anchor="middle" dominant-baseline="middle">Paint</text>

	<rect x="1700" y="300" width="300" height="100" fill="yellow" stroke="black" />
	<text x="1850" y="350" text-anchor="middle" dominant-baseline="middle">Composite</text>

	<g marker-end="url(resources.svg#Arrowhead2)" color="black" stroke="currentColor" stroke-width="10" fill="none">
		<path d="M 275 150 l 55 0" />
		<path d="M 650 150 l 55 0" />
		<path d="M 1025 150 l 55 0" />
		<path d="M 1400 150 l 55 0" />
		<path d="M 1725 150 l 55 0" />
		<path d="M 2000 150 C 2050 150 2075 250 1850 250 C 1600 250 1600 350 1675 350" />
	</g>

	<text x="875" y="350" text-anchor="middle" dominant-baseline="middle">Now shown separately</text>

	<g marker-end="url(resources.svg#Arrowhead2)" color="black" stroke="currentColor" stroke-width="7" fill="none">
		<path d="M 825 330 l -150 -80" />
		<path d="M 875 330 l 0 -80" />
		<path d="M 925 330 l 150 -80" />
	</g>

</svg>
